<!DOCTYPE svg PUBLIC "-//W3C//DTD SVG 20010904//EN" "http://www.w3.org/TR/2001/REC-SVG-20010904/DTD/svg10.dtd">
<svg version="1.0" xmlns="http://www.w3.org/2000/svg" width="111px" height="123px" viewBox="0 0 1110 1230" preserveAspectRatio="xMidYMid meet">
  <g id="layer101" fill="#101010" stroke="none">
    <path fill="#222222" d="M485 1154 c-138 -35 -239 -93 -304 -174 -19 -24 -49 -77 -68 -119 -30 -69 -33 -85 -33 -174 0 -83 4 -109 26 -165 32 -80 67 -132 126 -189 43 -41 138 -95 190 -108 26 -7 27 -10 22 -45 -20 -124 137 -185 201 -78 13 22 16 42 12 73 -6 40 -5 43 20 50 104 26 242 135 291 231 64 126 70 294 14 417 -17 38 -45 86 -63 108 -44 56 -143 123 -218 149 -64 21 -177 34 -216 24z m148 -99 c86 -22 149 -58 199 -114 55 -61 75 -101 93 -187 48 -232 -135 -456 -375 -456 -278 0 -463 291 -347 546 49 106 137 178 260 211 68 18 101 18 170 0z m-55 -867 c17 -17 15 -53 -3 -68 -12 -10 -21 -10 -40 -2 -40 19 -29 82 15 82 9 0 21 -5 28 -12z"/>
    <path fill="#222222" d="M517 880 c-16 -65 -34 -123 -40 -129 -7 -5 -65 -22 -129 -37 -65 -16 -114 -31 -110 -35 4 -3 50 -16 102 -28 155 -37 142 -25 175 -159 16 -64 31 -120 35 -125 3 -4 12 22 19 58 25 124 45 179 72 192 13 7 73 25 133 40 93 23 105 28 80 34 -16 4 -73 17 -127 30 -53 12 -101 27 -106 33 -10 13 -33 94 -52 184 -7 34 -16 62 -19 62 -3 0 -18 -54 -33 -120z m61 -196 c3 -23 -18 -37 -43 -28 -16 6 -20 35 -8 48 14 14 48 1 51 -20z"/>
    <path fill="#222222" d="M374 843 c8 -16 21 -36 28 -46 13 -18 14 -18 32 1 17 20 16 21 -21 46 -48 33 -57 33 -39 -1z"/>
    <path fill="#222222" d="M690 848 c-19 -12 -37 -23 -39 -25 -7 -5 21 -33 33 -33 7 0 22 18 35 40 25 46 20 49 -29 18z"/>
    <path fill="#222222" d="M386 540 c-14 -22 -26 -42 -26 -46 0 -5 65 30 83 46 4 3 -1 14 -11 23 -18 17 -20 16 -46 -23z"/>
    <path fill="#222222" d="M666 561 c-16 -18 -15 -20 26 -44 24 -14 44 -24 46 -23 4 4 -42 86 -49 86 -3 0 -14 -8 -23 -19z"/>
  </g>
</svg>
